<svg width="32" height="32" viewBox="0 0 24 24" fill="none" xmlns="http://www.w3.org/2000/svg">
  <line x1="12" y1="2" x2="12" y2="22" stroke="#7c9ff5" stroke-width="1.5" stroke-linecap="round"/>
  <line x1="17" y1="7" x2="7" y2="17" stroke="#7c9ff5" stroke-width="1.5" stroke-linecap="round"/>
  <line x1="7" y1="7" x2="17" y2="17" stroke="#7c9ff5" stroke-width="1.5" stroke-linecap="round"/>
  <line x1="2" y1="12" x2="22" y2="12" stroke="#7c9ff5" stroke-width="1.5" stroke-linecap="round"/>
  <polyline points="15 4 12 2 9 4" stroke="#7c9ff5" stroke-width="1.5" stroke-linecap="round" stroke-linejoin="round" fill="none"/>
  <polyline points="15 20 12 22 9 20" stroke="#7c9ff5" stroke-width="1.5" stroke-linecap="round" stroke-linejoin="round" fill="none"/>
  <polyline points="20 9 22 12 20 15" stroke="#7c9ff5" stroke-width="1.5" stroke-linecap="round" stroke-linejoin="round" fill="none"/>
  <polyline points="4 9 2 12 4 15" stroke="#7c9ff5" stroke-width="1.5" stroke-linecap="round" stroke-linejoin="round" fill="none"/>
  <polyline points="19 5 17 7 19 9" stroke="#7c9ff5" stroke-width="1.5" stroke-linecap="round" stroke-linejoin="round" fill="none"/>
  <polyline points="5 5 7 7 5 9" stroke="#7c9ff5" stroke-width="1.5" stroke-linecap="round" stroke-linejoin="round" fill="none"/>
  <polyline points="19 15 17 17 19 19" stroke="#7c9ff5" stroke-width="1.5" stroke-linecap="round" stroke-linejoin="round" fill="none"/>
  <polyline points="5 15 7 17 5 19" stroke="#7c9ff5" stroke-width="1.5" stroke-linecap="round" stroke-linejoin="round" fill="none"/>
</svg>
